<svg xmlns="http://www.w3.org/2000/svg" width="16" height="20"><path id="bag" d="M954 3540.29l-1.145-12.89a.553.553 0 00-.547-.51h-2.354a3.948 3.948 0 00-7.9 0H939.7a.55.55 0 00-.547.51l-1.145 12.89v.05a2.854 2.854 0 003 2.67h10a2.854 2.854 0 003-2.67.257.257 0 000-.05zm-7.994-16.18a2.844 2.844 0 012.844 2.78h-5.688a2.844 2.844 0 012.844-2.78zm5 17.79h-10a1.763 1.763 0 01-1.9-1.53l1.1-12.37h1.847v1.68a.552.552 0 001.1 0V3528h5.692v1.68a.552.552 0 001.1 0V3528h1.855l1.1 12.37a1.765 1.765 0 01-1.9 1.53zm0 0" transform="translate(-938 -3523)" fill="#fe3e57" fill-rule="evenodd"/></svg>